# Blender v2.78 (sub 0) OBJ File: 'buttontri.blend'
# www.blender.org
mtllib buttontri.mtl
o menu_but_group1
v 0.004823 0.003408 0.018701
v 0.004324 0.003351 0.017498
v 0.004324 0.006444 0.017351
v 0.004823 0.006501 0.018554
v 0.003531 0.003302 0.016465
v 0.003531 0.006395 0.016318
v 0.002497 0.003264 0.015672
v 0.002497 0.006357 0.015526
v 0.001292 0.003241 0.015174
v 0.001292 0.006334 0.015028
v 0.000000 0.003233 0.015004
v 0.000000 0.006326 0.014858
v -0.001292 0.003241 0.015174
v -0.001292 0.006334 0.015028
v -0.002497 0.003264 0.015672
v -0.002497 0.006357 0.015526
v -0.003531 0.003302 0.016465
v -0.003531 0.006395 0.016318
v -0.004324 0.003351 0.017498
v -0.004324 0.006444 0.017351
v -0.004823 0.003408 0.018701
v -0.004823 0.006501 0.018554
v -0.004993 0.003469 0.019992
v -0.004993 0.006562 0.019845
v -0.004823 0.003530 0.021283
v -0.004823 0.006623 0.021136
v -0.004324 0.003587 0.022485
v -0.004324 0.006680 0.022339
v -0.003531 0.003636 0.023518
v -0.003531 0.006729 0.023372
v -0.002497 0.003674 0.024311
v -0.002497 0.006767 0.024165
v -0.001292 0.003697 0.024809
v -0.001292 0.006790 0.024663
v 0.000000 0.003705 0.024979
v 0.000000 0.006798 0.024833
v 0.001292 0.003697 0.024809
v 0.001292 0.006790 0.024663
v 0.002497 0.003674 0.024311
v 0.002497 0.006767 0.024165
v 0.003531 0.003636 0.023518
v 0.003531 0.006729 0.023372
v 0.004324 0.003587 0.022485
v 0.004324 0.006680 0.022339
v 0.004823 0.003530 0.021283
v 0.004823 0.006623 0.021136
v 0.004993 0.003469 0.019992
v 0.004993 0.006562 0.019845
v 0.003910 0.007457 0.018754
v 0.003505 0.007411 0.017779
v 0.002162 0.007552 0.018549
v 0.002411 0.007580 0.019150
v 0.002862 0.007371 0.016942
v 0.001765 0.007527 0.018032
v 0.002024 0.007341 0.016299
v 0.001248 0.007509 0.017636
v 0.001048 0.007322 0.015895
v 0.000646 0.007497 0.017387
v 0.000000 0.007315 0.015757
v 0.000000 0.007493 0.017302
v -0.001048 0.007322 0.015895
v -0.000646 0.007497 0.017387
v -0.002024 0.007341 0.016299
v -0.001248 0.007509 0.017636
v -0.002862 0.007371 0.016942
v -0.001765 0.007527 0.018032
v -0.003505 0.007411 0.017779
v -0.002162 0.007552 0.018549
v -0.003910 0.007457 0.018754
v -0.002412 0.007580 0.019150
v -0.004048 0.007507 0.019800
v -0.002497 0.007611 0.019795
v -0.003910 0.007556 0.020847
v -0.002412 0.007642 0.020441
v -0.003505 0.007602 0.021822
v -0.002162 0.007670 0.021042
v -0.002862 0.007642 0.022659
v -0.001765 0.007695 0.021559
v -0.002024 0.007673 0.023302
v -0.001248 0.007713 0.021955
v -0.001048 0.007692 0.023706
v -0.000646 0.007725 0.022204
v 0.000000 0.007698 0.023843
v 0.000000 0.007729 0.022289
v 0.001048 0.007692 0.023706
v 0.000646 0.007725 0.022204
v 0.002024 0.007673 0.023302
v 0.001248 0.007713 0.021955
v 0.002862 0.007642 0.022659
v 0.001765 0.007695 0.021559
v 0.003505 0.007602 0.021822
v 0.002162 0.007670 0.021042
v 0.003910 0.007556 0.020847
v 0.002412 0.007642 0.020441
v 0.004048 0.007507 0.019800
v 0.002497 0.007611 0.019795
v 0.000000 0.007696 0.019791
v 0.004701 0.006975 0.018565
v 0.004866 0.007034 0.019823
v 0.004366 0.007325 0.018638
v 0.004520 0.007380 0.019806
v 0.003915 0.007273 0.017549
v 0.004214 0.006919 0.017392
v 0.003196 0.007229 0.016614
v 0.003441 0.006871 0.016386
v 0.002260 0.007195 0.015896
v 0.002433 0.006835 0.015613
v 0.001170 0.007173 0.015445
v 0.001260 0.006812 0.015127
v 0.000000 0.007166 0.015291
v 0.000000 0.006804 0.014962
v -0.001170 0.007173 0.015445
v -0.001260 0.006812 0.015127
v -0.002260 0.007195 0.015896
v -0.002433 0.006835 0.015613
v -0.003196 0.007229 0.016614
v -0.003441 0.006871 0.016386
v -0.003915 0.007273 0.017549
v -0.004214 0.006919 0.017392
v -0.004366 0.007325 0.018638
v -0.004701 0.006975 0.018565
v -0.004520 0.007380 0.019806
v -0.004866 0.007034 0.019823
v -0.004366 0.007435 0.020975
v -0.004701 0.007094 0.021081
v -0.003915 0.007487 0.022064
v -0.004214 0.007149 0.022253
v -0.003196 0.007531 0.022999
v -0.003441 0.007197 0.023260
v -0.002260 0.007565 0.023717
v -0.002433 0.007234 0.024033
v -0.001170 0.007587 0.024168
v -0.001260 0.007257 0.024518
v 0.000000 0.007594 0.024322
v 0.000000 0.007265 0.024684
v 0.001170 0.007587 0.024168
v 0.001260 0.007257 0.024518
v 0.002260 0.007565 0.023717
v 0.002433 0.007234 0.024033
v 0.003196 0.007531 0.022999
v 0.003441 0.007197 0.023260
v 0.003915 0.007487 0.022064
v 0.004214 0.007149 0.022253
v 0.004366 0.007435 0.020975
v 0.004701 0.007094 0.021081
vt 0.4559 0.7780
vt 0.4553 0.7653
vt 0.4605 0.7667
vt 0.4485 0.7875
vt 0.4511 0.7752
vt 0.4361 0.7902
vt 0.4446 0.7837
vt 0.4275 0.7996
vt 0.4389 0.7949
vt 0.4156 0.8012
vt 0.4263 0.7943
vt 0.4048 0.7943
vt 0.4156 0.7958
vt 0.4036 0.7996
vt 0.3950 0.7902
vt 0.3826 0.7875
vt 0.3923 0.7949
vt 0.3800 0.7752
vt 0.3865 0.7837
vt 0.3753 0.7780
vt 0.3758 0.7653
vt 0.3706 0.7667
vt 0.3744 0.7546
vt 0.3691 0.7546
vt 0.3758 0.7440
vt 0.3752 0.7314
vt 0.3706 0.7426
vt 0.3826 0.7217
vt 0.3799 0.7341
vt 0.3923 0.7143
vt 0.3865 0.7255
vt 0.4049 0.7149
vt 0.3950 0.7190
vt 0.4035 0.7097
vt 0.4156 0.7135
vt 0.4276 0.7097
vt 0.4156 0.7081
vt 0.4388 0.7143
vt 0.4262 0.7149
vt 0.4447 0.7255
vt 0.4361 0.7190
vt 0.4485 0.7217
vt 0.4512 0.7341
vt 0.4559 0.7314
vt 0.4553 0.7440
vt 0.4621 0.7547
vt 0.4605 0.7426
vt 0.4567 0.7546
vt 0.4418 0.7697
vt 0.4337 0.7595
vt 0.4447 0.7625
vt 0.4289 0.7680
vt 0.4320 0.7640
vt 0.4306 0.7808
vt 0.4370 0.7760
vt 0.4233 0.7838
vt 0.4251 0.7709
vt 0.4156 0.7734
vt 0.4204 0.7729
vt 0.4078 0.7838
vt 0.4156 0.7848
vt 0.4060 0.7709
vt 0.4107 0.7729
vt 0.4005 0.7808
vt 0.4022 0.7680
vt 0.3893 0.7697
vt 0.3941 0.7760
vt 0.3974 0.7595
vt 0.3991 0.7640
vt 0.3864 0.7625
vt 0.3967 0.7546
vt 0.3853 0.7547
vt 0.3973 0.7497
vt 0.3894 0.7395
vt 0.3864 0.7468
vt 0.4022 0.7413
vt 0.3992 0.7452
vt 0.4004 0.7285
vt 0.3942 0.7333
vt 0.4077 0.7255
vt 0.4061 0.7383
vt 0.4156 0.7244
vt 0.4107 0.7364
vt 0.4205 0.7364
vt 0.4156 0.7357
vt 0.4234 0.7255
vt 0.4250 0.7383
vt 0.4307 0.7285
vt 0.4289 0.7413
vt 0.4417 0.7395
vt 0.4369 0.7333
vt 0.4338 0.7497
vt 0.4319 0.7452
vt 0.4458 0.7547
vt 0.4448 0.7468
vt 0.4345 0.7546
vt 0.4156 0.7551
vt 0.4517 0.7643
vt 0.4494 0.7546
vt 0.4530 0.7546
vt 0.4482 0.7634
vt 0.4448 0.7715
vt 0.4479 0.7733
vt 0.4395 0.7785
vt 0.4419 0.7811
vt 0.4343 0.7870
vt 0.4325 0.7839
vt 0.4242 0.7873
vt 0.4253 0.7908
vt 0.4156 0.7920
vt 0.4156 0.7884
vt 0.4069 0.7873
vt 0.4058 0.7908
vt 0.3986 0.7839
vt 0.3968 0.7870
vt 0.3916 0.7785
vt 0.3892 0.7811
vt 0.3832 0.7733
vt 0.3863 0.7715
vt 0.3794 0.7643
vt 0.3829 0.7634
vt 0.3817 0.7547
vt 0.3781 0.7546
vt 0.3829 0.7459
vt 0.3794 0.7450
vt 0.3863 0.7377
vt 0.3831 0.7359
vt 0.3916 0.7307
vt 0.3891 0.7282
vt 0.3986 0.7254
vt 0.3968 0.7222
vt 0.4059 0.7185
vt 0.4068 0.7220
vt 0.4156 0.7172
vt 0.4156 0.7208
vt 0.4243 0.7220
vt 0.4253 0.7185
vt 0.4325 0.7254
vt 0.4343 0.7222
vt 0.4395 0.7307
vt 0.4420 0.7282
vt 0.4480 0.7359
vt 0.4448 0.7378
vt 0.4482 0.7459
vt 0.4517 0.7450
vn 0.8661 -0.0237 -0.4993
vn 0.9654 0.0212 -0.2601
vn 0.9659 -0.0123 -0.2585
vn 0.7069 -0.0334 -0.7065
vn 0.8066 0.1031 -0.5820
vn 0.4997 -0.0074 -0.8662
vn 0.6302 0.0948 -0.7706
vn 0.2587 -0.0455 -0.9649
vn 0.4999 -0.0408 -0.8651
vn 0.0000 -0.0472 -0.9989
vn 0.1631 0.0828 -0.9831
vn -0.2587 -0.0125 -0.9659
vn -0.0945 0.0833 -0.9920
vn -0.2587 -0.0455 -0.9649
vn -0.4997 -0.0074 -0.8662
vn -0.7069 -0.0334 -0.7065
vn -0.4999 -0.0408 -0.8651
vn -0.8655 0.0101 -0.5008
vn -0.7653 0.1011 -0.6357
vn -0.8661 -0.0237 -0.4993
vn -0.9654 0.0212 -0.2601
vn -0.9659 -0.0123 -0.2585
vn -0.9994 0.0340 -0.0015
vn -1.0000 0.0000 0.0000
vn -0.9654 0.0453 0.2568
vn -0.8660 0.0236 0.4994
vn -0.9659 0.0123 0.2587
vn -0.7073 0.0333 0.7061
vn -0.8069 0.1577 0.5693
vn -0.5001 0.0413 0.8650
vn -0.6301 0.1669 0.7583
vn -0.2586 0.0793 0.9627
vn -0.4104 0.1730 0.8953
vn -0.2586 0.0455 0.9649
vn 0.0000 0.0808 0.9967
vn 0.2586 0.0455 0.9649
vn 0.0000 0.0472 0.9989
vn 0.5001 0.0413 0.8650
vn 0.3475 0.1741 0.9214
vn 0.7067 0.0671 0.7043
vn 0.5764 0.1684 0.7996
vn 0.7073 0.0333 0.7061
vn 0.8656 0.0578 0.4974
vn 0.8660 0.0236 0.4994
vn 0.9654 0.0453 0.2568
vn 1.0000 0.0000 0.0000
vn 0.9659 0.0123 0.2587
vn 0.9868 0.1258 -0.1016
vn 0.1230 0.9874 -0.1001
vn 0.0539 0.9966 -0.0618
vn 0.1255 0.9888 -0.0807
vn 0.0395 0.9954 -0.0867
vn 0.0426 0.9962 -0.0764
vn 0.0802 0.9848 -0.1541
vn 0.0881 0.9773 -0.1928
vn 0.0494 0.9839 -0.1716
vn 0.0226 0.9954 -0.0931
vn -0.0000 0.9947 -0.1030
vn 0.0094 0.9951 -0.0981
vn -0.0191 0.9835 -0.1797
vn -0.0419 0.9762 -0.2130
vn -0.0280 0.9950 -0.0955
vn -0.0168 0.9953 -0.0957
vn -0.0802 0.9848 -0.1541
vn -0.0395 0.9954 -0.0867
vn -0.1076 0.9861 -0.1268
vn -0.1465 0.9800 -0.1345
vn -0.0539 0.9966 -0.0617
vn -0.0465 0.9965 -0.0696
vn -0.1323 0.9890 -0.0666
vn -0.0558 0.9973 -0.0475
vn -0.1334 0.9906 -0.0312
vn -0.0539 0.9980 -0.0328
vn -0.1226 0.9924 0.0061
vn -0.1502 0.9880 0.0369
vn -0.0394 0.9992 -0.0078
vn -0.0429 0.9989 -0.0183
vn -0.0803 0.9949 0.0608
vn -0.0887 0.9910 0.1002
vn -0.0492 0.9958 0.0777
vn -0.0219 0.9998 -0.0005
vn -0.0154 0.9962 0.0859
vn -0.0096 0.9999 0.0034
vn 0.0146 0.9999 0.0066
vn 0.0038 1.0000 0.0042
vn 0.0492 0.9958 0.0777
vn 0.0276 0.9996 0.0012
vn 0.0803 0.9949 0.0608
vn 0.0394 0.9992 -0.0078
vn 0.1071 0.9937 0.0329
vn 0.1476 0.9882 0.0413
vn 0.0539 0.9980 -0.0328
vn 0.0466 0.9986 -0.0246
vn 0.1334 0.9906 -0.0312
vn 0.1718 0.9842 -0.0436
vn 0.0518 0.9973 -0.0518
vn 0.0000 0.9989 -0.0473
vn 0.8440 0.4738 -0.2515
vn 0.5271 0.8489 -0.0398
vn 0.8708 0.4907 -0.0301
vn 0.5086 0.8437 -0.1714
vn 0.4562 0.8366 -0.3033
vn 0.7510 0.4688 -0.4651
vn 0.3723 0.8316 -0.4121
vn 0.6109 0.4610 -0.6437
vn 0.4374 0.4481 -0.7797
vn 0.2478 0.8334 -0.4941
vn 0.1217 0.8310 -0.5428
vn 0.2191 0.4497 -0.8659
vn -0.0000 0.4428 -0.8966
vn -0.0123 0.8303 -0.5572
vn -0.1362 0.8251 -0.5483
vn -0.2321 0.4499 -0.8624
vn -0.2633 0.8275 -0.4960
vn -0.4374 0.4481 -0.7797
vn -0.3723 0.8316 -0.4121
vn -0.6214 0.4613 -0.6333
vn -0.7575 0.4633 -0.4599
vn -0.4541 0.8430 -0.2883
vn -0.8449 0.4734 -0.2492
vn -0.5022 0.8494 -0.1620
vn -0.5177 0.8551 -0.0278
vn -0.8714 0.4903 -0.0157
vn -0.4961 0.8619 0.1050
vn -0.8397 0.5012 0.2090
vn -0.4564 0.8614 0.2230
vn -0.7576 0.5047 0.4139
vn -0.3724 0.8668 0.3315
vn -0.6107 0.5202 0.5970
vn -0.2480 0.8764 0.4129
vn -0.4290 0.5266 0.7340
vn -0.2265 0.5240 0.8211
vn -0.1219 0.8786 0.4617
vn -0.0000 0.5256 0.8507
vn 0.0125 0.8796 0.4755
vn 0.1364 0.8732 0.4679
vn 0.2327 0.5296 0.8157
vn 0.2632 0.8707 0.4154
vn 0.4421 0.5262 0.7264
vn 0.3724 0.8668 0.3316
vn 0.6185 0.5137 0.5947
vn 0.7576 0.5047 0.4139
vn 0.4543 0.8664 0.2073
vn 0.5024 0.8608 0.0811
vn 0.8434 0.5006 0.1952
usemtl lambert4SG.002
s 1
f 2/1/1 4/2/2 1/3/3
f 5/4/4 3/5/5 2/1/1
f 5/4/4 8/6/6 6/7/7
f 9/8/8 8/6/6 7/9/9
f 11/10/10 10/11/11 9/8/8
f 11/10/10 14/12/12 12/13/13
f 13/14/14 16/15/15 14/12/12
f 17/16/16 16/15/15 15/17/17
f 17/16/16 20/18/18 18/19/19
f 19/20/20 22/21/21 20/18/18
f 21/22/22 24/23/23 22/21/21
f 23/24/24 26/25/25 24/23/23
f 27/26/26 26/25/25 25/27/27
f 29/28/28 28/29/29 27/26/26
f 31/30/30 30/31/31 29/28/28
f 31/30/30 34/32/32 32/33/33
f 33/34/34 36/35/35 34/32/32
f 37/36/36 36/35/35 35/37/37
f 39/38/38 38/39/39 37/36/36
f 39/38/38 42/40/40 40/41/41
f 41/42/42 44/43/43 42/40/40
f 43/44/44 46/45/45 44/43/43
f 47/46/46 46/45/45 45/47/47
f 1/3/3 48/48/48 47/46/46
f 50/49/49 52/50/50 49/51/51
f 50/49/49 54/52/52 51/53/53
f 55/54/54 54/52/52 53/55/55
f 57/56/56 56/57/57 55/54/54
f 57/56/56 60/58/58 58/59/59
f 61/60/60 60/58/58 59/61/61
f 61/60/60 64/62/62 62/63/63
f 63/64/64 66/65/65 64/62/62
f 67/66/66 66/65/65 65/67/67
f 67/66/66 70/68/68 68/69/69
f 69/70/70 72/71/71 70/68/68
f 71/72/72 74/73/73 72/71/71
f 75/74/74 74/73/73 73/75/75
f 75/74/74 78/76/76 76/77/77
f 79/78/78 78/76/76 77/79/79
f 81/80/80 80/81/81 79/78/78
f 83/82/82 82/83/83 81/80/80
f 83/82/82 86/84/84 84/85/85
f 85/86/86 88/87/87 86/84/84
f 87/88/88 90/89/89 88/87/87
f 91/90/90 90/89/89 89/91/91
f 91/90/90 94/92/92 92/93/93
f 95/94/94 94/92/92 93/95/95
f 49/51/51 96/96/96 95/94/94
f 52/50/50 51/53/53 97/97/97
f 51/53/53 54/52/52 97/97/97
f 54/52/52 56/57/57 97/97/97
f 56/57/57 58/59/59 97/97/97
f 58/59/59 60/58/58 97/97/97
f 60/58/58 62/63/63 97/97/97
f 62/63/63 64/62/62 97/97/97
f 64/62/62 66/65/65 97/97/97
f 66/65/65 68/69/69 97/97/97
f 68/69/69 70/68/68 97/97/97
f 70/68/68 72/71/71 97/97/97
f 72/71/71 74/73/73 97/97/97
f 74/73/73 76/77/77 97/97/97
f 76/77/77 78/76/76 97/97/97
f 78/76/76 80/81/81 97/97/97
f 80/81/81 82/83/83 97/97/97
f 82/83/83 84/85/85 97/97/97
f 84/85/85 86/84/84 97/97/97
f 86/84/84 88/87/87 97/97/97
f 88/87/87 90/89/89 97/97/97
f 90/89/89 92/93/93 97/97/97
f 92/93/93 94/92/92 97/97/97
f 94/92/92 96/96/96 97/97/97
f 96/96/96 52/50/50 97/97/97
f 98/98/98 48/48/48 4/2/2
f 98/98/98 101/99/99 99/100/100
f 100/101/101 95/94/94 101/99/99
f 49/51/51 102/102/102 50/49/49
f 98/98/98 102/102/102 100/101/101
f 4/2/2 103/103/103 98/98/98
f 50/49/49 104/104/104 53/55/55
f 103/103/103 104/104/104 102/102/102
f 3/5/5 105/105/105 103/103/103
f 104/104/104 55/54/54 53/55/55
f 104/104/104 107/106/106 106/107/107
f 105/105/105 8/6/6 107/106/106
f 106/107/107 57/56/56 55/54/54
f 107/106/106 108/108/108 106/107/107
f 107/106/106 10/11/11 109/109/109
f 108/108/108 59/61/61 57/56/56
f 108/108/108 111/110/110 110/111/111
f 10/11/11 111/110/110 109/109/109
f 59/61/61 112/112/112 61/60/60
f 111/110/110 112/112/112 110/111/111
f 111/110/110 14/12/12 113/113/113
f 61/60/60 114/114/114 63/64/64
f 112/112/112 115/115/115 114/114/114
f 14/12/12 115/115/115 113/113/113
f 63/64/64 116/116/116 65/67/67
f 115/115/115 116/116/116 114/114/114
f 16/15/15 117/117/117 115/115/115
f 116/116/116 67/66/66 65/67/67
f 116/116/116 119/118/118 118/119/119
f 117/117/117 20/18/18 119/118/118
f 118/119/119 69/70/70 67/66/66
f 118/119/119 121/120/120 120/121/121
f 119/118/118 22/21/21 121/120/120
f 120/121/121 71/72/72 69/70/70
f 121/120/120 122/122/122 120/121/121
f 121/120/120 24/23/23 123/123/123
f 122/122/122 73/75/75 71/72/72
f 123/123/123 124/124/124 122/122/122
f 123/123/123 26/25/25 125/125/125
f 73/75/75 126/126/126 75/74/74
f 124/124/124 127/127/127 126/126/126
f 26/25/25 127/127/127 125/125/125
f 75/74/74 128/128/128 77/79/79
f 127/127/127 128/128/128 126/126/126
f 127/127/127 30/31/31 129/129/129
f 128/128/128 79/78/78 77/79/79
f 129/129/129 130/130/130 128/128/128
f 129/129/129 32/33/33 131/131/131
f 130/130/130 81/80/80 79/78/78
f 130/130/130 133/132/132 132/133/133
f 32/33/33 133/132/132 131/131/131
f 132/133/133 83/82/82 81/80/80
f 132/133/133 135/134/134 134/135/135
f 34/32/32 135/134/134 133/132/132
f 83/82/82 136/136/136 85/86/86
f 135/134/134 136/136/136 134/135/135
f 135/134/134 38/39/39 137/137/137
f 85/86/86 138/138/138 87/88/88
f 137/137/137 138/138/138 136/136/136
f 137/137/137 40/41/41 139/139/139
f 87/88/88 140/140/140 89/91/91
f 138/138/138 141/141/141 140/140/140
f 40/41/41 141/141/141 139/139/139
f 140/140/140 91/90/90 89/91/91
f 140/140/140 143/142/142 142/143/143
f 42/40/40 143/142/142 141/141/141
f 142/143/143 93/95/95 91/90/90
f 143/142/142 144/144/144 142/143/143
f 143/142/142 46/45/45 145/145/145
f 93/95/95 101/99/99 95/94/94
f 144/144/144 99/100/100 101/99/99
f 46/45/45 99/100/100 145/145/145
f 2/1/1 3/5/5 4/2/2
f 5/4/4 6/7/7 3/5/5
f 5/4/4 7/9/9 8/6/6
f 9/8/8 10/11/11 8/6/6
f 11/10/10 12/13/13 10/11/11
f 11/10/10 13/14/14 14/12/12
f 13/14/14 15/17/17 16/15/15
f 17/16/16 18/19/19 16/15/15
f 17/16/16 19/20/20 20/18/18
f 19/20/20 21/22/22 22/21/21
f 21/22/22 23/24/24 24/23/23
f 23/24/24 25/27/27 26/25/25
f 27/26/26 28/29/29 26/25/25
f 29/28/28 30/31/31 28/29/29
f 31/30/30 32/33/33 30/31/31
f 31/30/30 33/34/34 34/32/32
f 33/34/34 35/37/37 36/35/35
f 37/36/36 38/39/39 36/35/35
f 39/38/38 40/41/41 38/39/39
f 39/38/38 41/42/42 42/40/40
f 41/42/42 43/44/44 44/43/43
f 43/44/44 45/47/47 46/45/45
f 47/46/46 48/48/48 46/45/45
f 1/3/3 4/2/2 48/48/48
f 50/49/49 51/53/53 52/50/50
f 50/49/49 53/55/55 54/52/52
f 55/54/54 56/57/57 54/52/52
f 57/56/56 58/59/59 56/57/57
f 57/56/56 59/61/61 60/58/58
f 61/60/60 62/63/63 60/58/58
f 61/60/60 63/64/64 64/62/62
f 63/64/64 65/67/67 66/65/65
f 67/66/66 68/69/69 66/65/65
f 67/66/66 69/70/70 70/68/68
f 69/70/70 71/72/72 72/71/71
f 71/72/72 73/75/75 74/73/73
f 75/74/74 76/77/77 74/73/73
f 75/74/74 77/79/79 78/76/76
f 79/78/78 80/81/81 78/76/76
f 81/80/80 82/83/83 80/81/81
f 83/82/82 84/85/85 82/83/83
f 83/82/82 85/86/86 86/84/84
f 85/86/86 87/88/88 88/87/87
f 87/88/88 89/91/91 90/89/89
f 91/90/90 92/93/93 90/89/89
f 91/90/90 93/95/95 94/92/92
f 95/94/94 96/96/96 94/92/92
f 49/51/51 52/50/50 96/96/96
f 98/98/98 99/100/100 48/48/48
f 98/98/98 100/101/101 101/99/99
f 100/101/101 49/51/51 95/94/94
f 49/51/51 100/101/101 102/102/102
f 98/98/98 103/103/103 102/102/102
f 4/2/2 3/5/5 103/103/103
f 50/49/49 102/102/102 104/104/104
f 103/103/103 105/105/105 104/104/104
f 3/5/5 6/7/7 105/105/105
f 104/104/104 106/107/107 55/54/54
f 104/104/104 105/105/105 107/106/106
f 105/105/105 6/7/7 8/6/6
f 106/107/107 108/108/108 57/56/56
f 107/106/106 109/109/109 108/108/108
f 107/106/106 8/6/6 10/11/11
f 108/108/108 110/111/111 59/61/61
f 108/108/108 109/109/109 111/110/110
f 10/11/11 12/13/13 111/110/110
f 59/61/61 110/111/111 112/112/112
f 111/110/110 113/113/113 112/112/112
f 111/110/110 12/13/13 14/12/12
f 61/60/60 112/112/112 114/114/114
f 112/112/112 113/113/113 115/115/115
f 14/12/12 16/15/15 115/115/115
f 63/64/64 114/114/114 116/116/116
f 115/115/115 117/117/117 116/116/116
f 16/15/15 18/19/19 117/117/117
f 116/116/116 118/119/119 67/66/66
f 116/116/116 117/117/117 119/118/118
f 117/117/117 18/19/19 20/18/18
f 118/119/119 120/121/121 69/70/70
f 118/119/119 119/118/118 121/120/120
f 119/118/118 20/18/18 22/21/21
f 120/121/121 122/122/122 71/72/72
f 121/120/120 123/123/123 122/122/122
f 121/120/120 22/21/21 24/23/23
f 122/122/122 124/124/124 73/75/75
f 123/123/123 125/125/125 124/124/124
f 123/123/123 24/23/23 26/25/25
f 73/75/75 124/124/124 126/126/126
f 124/124/124 125/125/125 127/127/127
f 26/25/25 28/29/29 127/127/127
f 75/74/74 126/126/126 128/128/128
f 127/127/127 129/129/129 128/128/128
f 127/127/127 28/29/29 30/31/31
f 128/128/128 130/130/130 79/78/78
f 129/129/129 131/131/131 130/130/130
f 129/129/129 30/31/31 32/33/33
f 130/130/130 132/133/133 81/80/80
f 130/130/130 131/131/131 133/132/132
f 32/33/33 34/32/32 133/132/132
f 132/133/133 134/135/135 83/82/82
f 132/133/133 133/132/132 135/134/134
f 34/32/32 36/35/35 135/134/134
f 83/82/82 134/135/135 136/136/136
f 135/134/134 137/137/137 136/136/136
f 135/134/134 36/35/35 38/39/39
f 85/86/86 136/136/136 138/138/138
f 137/137/137 139/139/139 138/138/138
f 137/137/137 38/39/39 40/41/41
f 87/88/88 138/138/138 140/140/140
f 138/138/138 139/139/139 141/141/141
f 40/41/41 42/40/40 141/141/141
f 140/140/140 142/143/143 91/90/90
f 140/140/140 141/141/141 143/142/142
f 42/40/40 44/43/43 143/142/142
f 142/143/143 144/144/144 93/95/95
f 143/142/142 145/145/145 144/144/144
f 143/142/142 44/43/43 46/45/45
f 93/95/95 144/144/144 101/99/99
f 144/144/144 145/145/145 99/100/100
f 46/45/45 48/48/48 99/100/100
