# Blender v2.78 (sub 0) OBJ File: 'sysbuttom.blend'
# www.blender.org
mtllib sysbuttom.mtl
o sys_but_group1
v 0.004820 0.000530 0.086803
v 0.004327 0.000663 0.085618
v 0.004327 0.003753 0.085971
v 0.004820 0.003587 0.087093
v 0.003531 0.000774 0.084571
v 0.003531 0.003906 0.084925
v 0.002497 0.000863 0.083798
v 0.002497 0.003998 0.084153
v 0.001293 0.000923 0.083326
v 0.001293 0.004064 0.083682
v 0.000000 0.000936 0.083127
v 0.000000 0.004079 0.083482
v -0.001292 0.000923 0.083326
v -0.001292 0.004064 0.083682
v -0.002496 0.000863 0.083798
v -0.002496 0.003998 0.084153
v -0.003531 0.000774 0.084571
v -0.003531 0.003906 0.084925
v -0.004327 0.000663 0.085618
v -0.004327 0.003753 0.085970
v -0.004820 0.000530 0.086803
v -0.004820 0.003587 0.087093
v -0.004993 0.000397 0.088109
v -0.004993 0.003465 0.088461
v -0.004820 0.000266 0.089416
v -0.004820 0.003322 0.089706
v -0.004327 0.000146 0.090602
v -0.004327 0.003239 0.090893
v -0.003532 0.000051 0.091651
v -0.003532 0.003190 0.091944
v -0.002497 -0.000037 0.092423
v -0.002497 0.003102 0.092717
v -0.001293 -0.000059 0.092897
v -0.001293 0.003086 0.093253
v 0.000000 -0.000101 0.093094
v 0.000000 0.003076 0.093391
v 0.001293 -0.000059 0.092897
v 0.001293 0.003086 0.093253
v 0.002497 -0.000037 0.092423
v 0.002497 0.003102 0.092718
v 0.003532 0.000051 0.091651
v 0.003532 0.003190 0.091944
v 0.004327 0.000146 0.090602
v 0.004327 0.003239 0.090893
v 0.004820 0.000266 0.089416
v 0.004820 0.003322 0.089706
v 0.004993 0.000397 0.088109
v 0.004993 0.003465 0.088461
v 0.003266 0.003405 0.087511
v 0.002928 0.003504 0.086729
v 0.001525 0.003248 0.087502
v 0.001701 0.003187 0.087945
v 0.002390 0.003611 0.086004
v 0.001245 0.003302 0.087173
v 0.001689 0.003665 0.085547
v 0.000880 0.003300 0.086863
v 0.000875 0.003708 0.085185
v 0.000456 0.003356 0.086675
v 0.000000 0.003715 0.085068
v 0.000000 0.003361 0.086624
v -0.000875 0.003708 0.085185
v -0.000456 0.003356 0.086675
v -0.001689 0.003665 0.085547
v -0.000880 0.003300 0.086863
v -0.002390 0.003611 0.086004
v -0.001245 0.003302 0.087172
v -0.002928 0.003504 0.086729
v -0.001525 0.003248 0.087502
v -0.003266 0.003405 0.087511
v -0.001701 0.003187 0.087945
v -0.003378 0.003296 0.088390
v -0.001760 0.003138 0.088382
v -0.003266 0.003214 0.089333
v -0.001701 0.003075 0.088879
v -0.002928 0.003170 0.090118
v -0.001525 0.003058 0.089324
v -0.002390 0.003103 0.090844
v -0.001244 0.003045 0.089656
v -0.001689 0.003074 0.091303
v -0.000880 0.003010 0.089903
v -0.000875 0.003049 0.091667
v -0.000456 0.002987 0.090093
v 0.000000 0.003043 0.091782
v 0.000000 0.002984 0.090144
v 0.000875 0.003049 0.091667
v 0.000456 0.002987 0.090093
v 0.001689 0.003075 0.091303
v 0.000880 0.003010 0.089903
v 0.002390 0.003103 0.090844
v 0.001244 0.003045 0.089656
v 0.002928 0.003170 0.090118
v 0.001525 0.003058 0.089324
v 0.003264 0.003214 0.089333
v 0.001701 0.003075 0.088879
v 0.003379 0.003296 0.088390
v 0.001760 0.003138 0.088382
v 0.000000 0.003031 0.088376
v 0.004729 0.003729 0.087215
v 0.004897 0.003575 0.088467
v 0.004367 0.003616 0.087250
v 0.004522 0.003492 0.088462
v 0.003915 0.003763 0.086198
v 0.004241 0.003853 0.086051
v 0.003197 0.003882 0.085230
v 0.003463 0.003982 0.084987
v 0.002261 0.003993 0.084554
v 0.002448 0.004091 0.084194
v 0.001170 0.004043 0.084081
v 0.001267 0.004141 0.083735
v 0.000000 0.004048 0.083994
v 0.000000 0.004181 0.083637
v -0.001170 0.004043 0.084080
v -0.001267 0.004141 0.083735
v -0.002261 0.003993 0.084553
v -0.002448 0.004091 0.084194
v -0.003197 0.003882 0.085230
v -0.003463 0.003982 0.084986
v -0.003915 0.003763 0.086198
v -0.004241 0.003853 0.086051
v -0.004367 0.003616 0.087249
v -0.004729 0.003729 0.087214
v -0.004522 0.003492 0.088462
v -0.004897 0.003575 0.088467
v -0.004367 0.003362 0.089613
v -0.004729 0.003469 0.089660
v -0.003915 0.003305 0.090732
v -0.004241 0.003375 0.090887
v -0.003197 0.003226 0.091640
v -0.003463 0.003266 0.091891
v -0.002261 0.003198 0.092383
v -0.002449 0.003229 0.092688
v -0.001170 0.003170 0.092796
v -0.001267 0.003200 0.093148
v 0.000000 0.003132 0.092941
v 0.000000 0.003161 0.093307
v 0.001170 0.003170 0.092796
v 0.001267 0.003200 0.093148
v 0.002261 0.003198 0.092383
v 0.002449 0.003227 0.092689
v 0.003197 0.003226 0.091640
v 0.003463 0.003266 0.091891
v 0.003915 0.003305 0.090732
v 0.004242 0.003375 0.090887
v 0.004367 0.003362 0.089613
v 0.004730 0.003469 0.089660
vt 0.4578 0.5910
vt 0.4581 0.5790
vt 0.4623 0.5801
vt 0.4505 0.6003
vt 0.4538 0.5889
vt 0.4411 0.6073
vt 0.4472 0.5972
vt 0.4303 0.6117
vt 0.4387 0.6034
vt 0.4187 0.6087
vt 0.4291 0.6074
vt 0.4072 0.6117
vt 0.4187 0.6132
vt 0.3987 0.6034
vt 0.4084 0.6074
vt 0.3963 0.6073
vt 0.3902 0.5971
vt 0.3869 0.6003
vt 0.3836 0.5889
vt 0.3797 0.5910
vt 0.3794 0.5790
vt 0.3736 0.5683
vt 0.3751 0.5801
vt 0.3794 0.5577
vt 0.3779 0.5683
vt 0.3797 0.5457
vt 0.3751 0.5566
vt 0.3869 0.5364
vt 0.3836 0.5478
vt 0.3987 0.5333
vt 0.3902 0.5395
vt 0.4072 0.5250
vt 0.3963 0.5294
vt 0.4187 0.5280
vt 0.4084 0.5293
vt 0.4303 0.5250
vt 0.4187 0.5235
vt 0.4387 0.5332
vt 0.4291 0.5293
vt 0.4505 0.5364
vt 0.4411 0.5294
vt 0.4538 0.5478
vt 0.4472 0.5395
vt 0.4578 0.5457
vt 0.4581 0.5577
vt 0.4639 0.5683
vt 0.4623 0.5566
vt 0.4595 0.5683
vt 0.4451 0.5754
vt 0.4313 0.5756
vt 0.4327 0.5721
vt 0.4380 0.5877
vt 0.4424 0.5820
vt 0.4324 0.5920
vt 0.4290 0.5786
vt 0.4225 0.5824
vt 0.4260 0.5809
vt 0.4187 0.5956
vt 0.4258 0.5947
vt 0.4150 0.5824
vt 0.4187 0.5829
vt 0.4051 0.5920
vt 0.4117 0.5947
vt 0.4084 0.5786
vt 0.4115 0.5809
vt 0.3995 0.5877
vt 0.4061 0.5756
vt 0.3923 0.5754
vt 0.3951 0.5820
vt 0.3914 0.5683
vt 0.4047 0.5721
vt 0.4047 0.5646
vt 0.4041 0.5683
vt 0.3923 0.5613
vt 0.4061 0.5611
vt 0.3995 0.5490
vt 0.3951 0.5546
vt 0.4051 0.5447
vt 0.4084 0.5581
vt 0.4150 0.5543
vt 0.4115 0.5558
vt 0.4187 0.5411
vt 0.4117 0.5420
vt 0.4225 0.5543
vt 0.4187 0.5538
vt 0.4324 0.5447
vt 0.4258 0.5420
vt 0.4290 0.5581
vt 0.4260 0.5558
vt 0.4380 0.5490
vt 0.4313 0.5611
vt 0.4451 0.5612
vt 0.4424 0.5546
vt 0.4461 0.5683
vt 0.4327 0.5646
vt 0.4334 0.5683
vt 0.4187 0.5683
vt 0.4570 0.5787
vt 0.4553 0.5683
vt 0.4584 0.5683
vt 0.4540 0.5779
vt 0.4503 0.5867
vt 0.4529 0.5883
vt 0.4464 0.5964
vt 0.4444 0.5942
vt 0.4368 0.5999
vt 0.4382 0.6024
vt 0.4281 0.6034
vt 0.4288 0.6063
vt 0.4187 0.6046
vt 0.4187 0.6076
vt 0.4094 0.6034
vt 0.4086 0.6063
vt 0.4007 0.5999
vt 0.3992 0.6024
vt 0.3911 0.5964
vt 0.3930 0.5942
vt 0.3872 0.5867
vt 0.3846 0.5883
vt 0.3834 0.5779
vt 0.3805 0.5787
vt 0.3822 0.5683
vt 0.3791 0.5683
vt 0.3805 0.5580
vt 0.3834 0.5588
vt 0.3846 0.5484
vt 0.3872 0.5500
vt 0.3911 0.5403
vt 0.3930 0.5424
vt 0.4007 0.5368
vt 0.3992 0.5342
vt 0.4086 0.5304
vt 0.4094 0.5333
vt 0.4187 0.5320
vt 0.4187 0.5291
vt 0.4281 0.5333
vt 0.4288 0.5304
vt 0.4368 0.5368
vt 0.4382 0.5342
vt 0.4444 0.5424
vt 0.4464 0.5403
vt 0.4503 0.5500
vt 0.4529 0.5484
vt 0.4540 0.5588
vt 0.4570 0.5580
vn 0.8650 0.0542 -0.4989
vn 0.9646 0.0358 -0.2614
vn 0.9673 0.0239 -0.2523
vn 0.7069 0.0797 -0.7028
vn 0.5866 0.4435 -0.6776
vn 0.4890 0.0981 -0.8668
vn 0.3849 0.4671 -0.7960
vn 0.2609 0.1085 -0.9592
vn 0.2356 0.3546 -0.9048
vn 0.0023 0.1875 -0.9823
vn -0.0210 0.3693 -0.9291
vn -0.2609 0.1085 -0.9593
vn -0.0001 0.1122 -0.9937
vn -0.4949 0.0667 -0.8664
vn -0.5104 0.3440 -0.7881
vn -0.4888 0.0981 -0.8669
vn -0.7050 0.1323 -0.6967
vn -0.7068 0.0797 -0.7029
vn -0.8619 0.0976 -0.4976
vn -0.8650 0.0542 -0.4988
vn -0.9649 0.0354 -0.2603
vn -1.0000 0.0003 -0.0025
vn -0.9674 0.0239 -0.2521
vn -0.9648 -0.0046 0.2628
vn -0.8996 0.2944 0.3226
vn -0.8667 -0.0468 0.4966
vn -0.9659 -0.0245 0.2579
vn -0.7063 -0.0661 0.7048
vn -0.6629 0.2141 0.7174
vn -0.5017 -0.1612 0.8499
vn -0.3908 0.3337 0.8578
vn -0.2612 -0.0945 0.9607
vn -0.4872 -0.0815 0.8695
vn -0.0001 -0.0814 0.9967
vn 0.1002 0.2879 0.9524
vn 0.2611 -0.0946 0.9607
vn 0.0000 -0.0931 0.9957
vn 0.5067 -0.1608 0.8470
vn 0.5379 0.3090 0.7844
vn 0.7062 -0.0661 0.7049
vn 0.4873 -0.0817 0.8694
vn 0.8678 -0.0637 0.4929
vn 0.8198 0.3699 0.4372
vn 0.8667 -0.0468 0.4966
vn 0.9648 -0.0048 0.2628
vn 1.0000 0.0003 -0.0027
vn 0.9659 -0.0245 0.2579
vn 0.8983 0.3680 -0.2401
vn -0.1254 0.9790 0.1605
vn -0.0673 0.9810 0.1817
vn -0.0846 0.9856 0.1461
vn -0.0864 0.9706 0.2249
vn -0.1126 0.9740 0.1964
vn -0.0706 0.9672 0.2438
vn -0.0690 0.9819 0.1764
vn -0.0084 0.9742 0.2255
vn -0.0410 0.9792 0.1986
vn 0.0005 0.9643 0.2648
vn -0.0435 0.9664 0.2535
vn 0.0084 0.9742 0.2255
vn 0.0084 0.9790 0.2039
vn 0.0716 0.9673 0.2435
vn 0.0406 0.9659 0.2558
vn 0.0813 0.9795 0.1843
vn 0.0649 0.9804 0.1859
vn 0.0865 0.9705 0.2250
vn 0.0674 0.9810 0.1817
vn 0.1260 0.9792 0.1588
vn 0.1113 0.9738 0.1985
vn 0.1396 0.9849 0.1022
vn 0.0781 0.9878 0.1351
vn 0.0841 0.9948 0.0581
vn 0.0767 0.9909 0.1102
vn 0.1268 0.9911 0.0414
vn 0.0666 0.9977 0.0111
vn 0.0898 0.9957 -0.0214
vn 0.1140 0.9934 0.0081
vn 0.0633 0.9969 -0.0478
vn 0.0487 0.9988 0.0102
vn 0.0296 0.9995 -0.0135
vn 0.0510 0.9985 0.0189
vn -0.0003 0.9982 -0.0592
vn 0.0397 0.9974 -0.0607
vn -0.0297 0.9995 -0.0136
vn -0.0140 0.9999 -0.0054
vn -0.0643 0.9968 -0.0473
vn -0.0369 0.9974 -0.0618
vn -0.0603 0.9981 0.0094
vn -0.0756 0.9969 0.0210
vn -0.0894 0.9958 -0.0215
vn -0.0666 0.9977 0.0111
vn -0.1268 0.9911 0.0415
vn -0.1128 0.9936 0.0060
vn -0.1396 0.9849 0.1027
vn -0.0746 0.9946 0.0721
vn -0.0816 0.9884 0.1282
vn 0.0000 0.9946 0.1042
vn 0.1463 0.9844 0.0976
vn -0.1816 0.9781 0.1017
vn 0.3807 0.8595 0.3409
vn -0.2001 0.9629 0.1809
vn -0.1383 0.9675 0.2116
vn 0.1027 0.9920 0.0730
vn 0.0558 0.9953 0.0795
vn -0.1121 0.9628 0.2458
vn -0.0739 0.9643 0.2543
vn 0.5052 0.8565 -0.1060
vn -0.0357 0.9597 0.2787
vn 0.3984 0.8901 -0.2214
vn -0.0001 0.9486 0.3166
vn -0.0001 0.9949 0.1004
vn 0.0363 0.9621 0.2703
vn 0.1852 0.9157 -0.3565
vn 0.0739 0.9643 0.2543
vn -0.0882 0.9957 -0.0279
vn -0.0561 0.9953 0.0791
vn 0.1107 0.9615 0.2513
vn 0.1383 0.9675 0.2117
vn -0.1430 0.9699 -0.1972
vn 0.2081 0.9599 0.1879
vn -0.2389 0.9554 -0.1734
vn 0.1986 0.9726 0.1211
vn -0.3151 0.9367 -0.1524
vn -0.1179 0.9853 0.1239
vn 0.2207 0.9740 0.0502
vn -0.1569 0.9740 0.1637
vn 0.1661 0.9861 -0.0061
vn -0.0083 0.9949 0.1010
vn 0.1092 0.9932 -0.0392
vn 0.0690 0.9950 -0.0723
vn -0.1514 0.9429 0.2965
vn -0.0115 0.9848 0.1734
vn 0.0460 0.9955 -0.0829
vn -0.0000 0.9964 -0.0851
vn 0.0000 0.9816 0.1909
vn -0.0522 0.9953 -0.0818
vn -0.1499 0.9032 0.4021
vn -0.0675 0.9952 -0.0705
vn 0.0221 0.8188 0.5736
vn -0.1074 0.9932 -0.0446
vn -0.0305 0.9025 0.4297
vn -0.1480 0.9889 -0.0167
vn 0.1845 0.8694 0.4583
vn -0.1939 0.9804 0.0337
vn 0.2165 0.8983 0.3823
usemtl lambert4SG.005
s 1
f 2/1/1 4/2/2 1/3/3
f 5/4/4 3/5/5 2/1/1
f 7/6/6 6/7/7 5/4/4
f 9/8/8 8/9/9 7/6/6
f 9/8/8 12/10/10 10/11/11
f 13/12/12 12/10/10 11/13/13
f 13/12/12 16/14/14 14/15/15
f 15/16/16 18/17/17 16/14/14
f 17/18/18 20/19/19 18/17/17
f 19/20/20 22/21/21 20/19/19
f 23/22/22 22/21/21 21/23/23
f 23/22/22 26/24/24 24/25/25
f 27/26/26 26/24/24 25/27/27
f 29/28/28 28/29/29 27/26/26
f 29/28/28 32/30/30 30/31/31
f 33/32/32 32/30/30 31/33/33
f 33/32/32 36/34/34 34/35/35
f 37/36/36 36/34/34 35/37/37
f 37/36/36 40/38/38 38/39/39
f 41/40/40 40/38/38 39/41/41
f 41/40/40 44/42/42 42/43/43
f 43/44/44 46/45/45 44/42/42
f 47/46/46 46/45/45 45/47/47
f 47/46/46 4/2/2 48/48/48
f 49/49/49 51/50/50 52/51/51
f 53/52/52 51/50/50 50/53/53
f 55/54/54 54/55/55 53/52/52
f 55/54/54 58/56/56 56/57/57
f 59/58/58 58/56/56 57/59/59
f 59/58/58 62/60/60 60/61/61
f 63/62/62 62/60/60 61/63/63
f 63/62/62 66/64/64 64/65/65
f 65/66/66 68/67/67 66/64/64
f 69/68/68 68/67/67 67/69/69
f 71/70/70 70/71/71 69/68/68
f 71/70/70 74/72/72 72/73/73
f 73/74/74 76/75/75 74/72/72
f 77/76/76 76/75/75 75/77/77
f 79/78/78 78/79/79 77/76/76
f 79/78/78 82/80/80 80/81/81
f 83/82/82 82/80/80 81/83/83
f 83/82/82 86/84/84 84/85/85
f 87/86/86 86/84/84 85/87/87
f 87/86/86 90/88/88 88/89/89
f 89/90/90 92/91/91 90/88/88
f 93/92/92 92/91/91 91/93/93
f 95/94/94 94/95/95 93/92/92
f 95/94/94 52/51/51 96/96/96
f 52/51/51 51/50/50 97/97/97
f 51/50/50 54/55/55 97/97/97
f 54/55/55 56/57/57 97/97/97
f 56/57/57 58/56/56 97/97/97
f 58/56/56 60/61/61 97/97/97
f 60/61/61 62/60/60 97/97/97
f 62/60/60 64/65/65 97/97/97
f 64/65/65 66/64/64 97/97/97
f 66/64/64 68/67/67 97/97/97
f 68/67/67 70/71/71 97/97/97
f 70/71/71 72/73/73 97/97/97
f 72/73/73 74/72/72 97/97/97
f 74/72/72 76/75/75 97/97/97
f 76/75/75 78/79/79 97/97/97
f 78/79/79 80/81/81 97/97/97
f 80/81/81 82/80/80 97/97/97
f 82/80/80 84/85/85 97/97/97
f 84/85/85 86/84/84 97/97/97
f 86/84/84 88/89/89 97/97/97
f 88/89/89 90/88/88 97/97/97
f 90/88/88 92/91/91 97/97/97
f 92/91/91 94/95/95 97/97/97
f 94/95/95 96/96/96 97/97/97
f 96/96/96 52/51/51 97/97/97
f 98/98/98 48/48/48 4/2/2
f 98/98/98 101/99/99 99/100/100
f 100/101/101 95/94/94 101/99/99
f 49/49/49 102/102/102 50/53/53
f 100/101/101 103/103/103 102/102/102
f 4/2/2 103/103/103 98/98/98
f 102/102/102 53/52/52 50/53/53
f 102/102/102 105/104/104 104/105/105
f 3/5/5 105/104/104 103/103/103
f 53/52/52 106/106/106 55/54/54
f 105/104/104 106/106/106 104/105/105
f 105/104/104 8/9/9 107/107/107
f 106/106/106 57/59/59 55/54/54
f 107/107/107 108/108/108 106/106/106
f 107/107/107 10/11/11 109/109/109
f 57/59/59 110/110/110 59/58/58
f 108/108/108 111/111/111 110/110/110
f 109/109/109 12/10/10 111/111/111
f 110/110/110 61/63/63 59/58/58
f 111/111/111 112/112/112 110/110/110
f 12/10/10 113/113/113 111/111/111
f 61/63/63 114/114/114 63/62/62
f 112/112/112 115/115/115 114/114/114
f 14/15/15 115/115/115 113/113/113
f 114/114/114 65/66/66 63/62/62
f 114/114/114 117/116/116 116/117/117
f 16/14/14 117/116/116 115/115/115
f 65/66/66 118/118/118 67/69/69
f 117/116/116 118/118/118 116/117/117
f 117/116/116 20/19/19 119/119/119
f 118/118/118 69/68/68 67/69/69
f 119/119/119 120/120/120 118/118/118
f 119/119/119 22/21/21 121/121/121
f 120/120/120 71/70/70 69/68/68
f 121/121/121 122/122/122 120/120/120
f 121/121/121 24/25/25 123/123/123
f 122/122/122 73/74/74 71/70/70
f 122/122/122 125/124/124 124/125/125
f 24/25/25 125/124/124 123/123/123
f 124/125/125 75/77/77 73/74/74
f 124/125/125 127/126/126 126/127/127
f 125/124/124 28/29/29 127/126/126
f 126/127/127 77/76/76 75/77/77
f 126/127/127 129/128/128 128/129/129
f 127/126/126 30/31/31 129/128/128
f 77/76/76 130/130/130 79/78/78
f 128/129/129 131/131/131 130/130/130
f 129/128/128 32/30/30 131/131/131
f 130/130/130 81/83/83 79/78/78
f 130/130/130 133/132/132 132/133/133
f 131/131/131 34/35/35 133/132/132
f 81/83/83 134/134/134 83/82/82
f 132/133/133 135/135/135 134/134/134
f 34/35/35 135/135/135 133/132/132
f 134/134/134 85/87/87 83/82/82
f 135/135/135 136/136/136 134/134/134
f 135/135/135 38/39/39 137/137/137
f 85/87/87 138/138/138 87/86/86
f 137/137/137 138/138/138 136/136/136
f 38/39/39 139/139/139 137/137/137
f 138/138/138 89/90/90 87/86/86
f 139/139/139 140/140/140 138/138/138
f 40/38/38 141/141/141 139/139/139
f 89/90/90 142/142/142 91/93/93
f 141/141/141 142/142/142 140/140/140
f 42/43/43 143/143/143 141/141/141
f 91/93/93 144/144/144 93/92/92
f 143/143/143 144/144/144 142/142/142
f 44/42/42 145/145/145 143/143/143
f 93/92/92 101/99/99 95/94/94
f 145/145/145 101/99/99 144/144/144
f 145/145/145 48/48/48 99/100/100
f 2/1/1 3/5/5 4/2/2
f 5/4/4 6/7/7 3/5/5
f 7/6/6 8/9/9 6/7/7
f 9/8/8 10/11/11 8/9/9
f 9/8/8 11/13/13 12/10/10
f 13/12/12 14/15/15 12/10/10
f 13/12/12 15/16/16 16/14/14
f 15/16/16 17/18/18 18/17/17
f 17/18/18 19/20/20 20/19/19
f 19/20/20 21/23/23 22/21/21
f 23/22/22 24/25/25 22/21/21
f 23/22/22 25/27/27 26/24/24
f 27/26/26 28/29/29 26/24/24
f 29/28/28 30/31/31 28/29/29
f 29/28/28 31/33/33 32/30/30
f 33/32/32 34/35/35 32/30/30
f 33/32/32 35/37/37 36/34/34
f 37/36/36 38/39/39 36/34/34
f 37/36/36 39/41/41 40/38/38
f 41/40/40 42/43/43 40/38/38
f 41/40/40 43/44/44 44/42/42
f 43/44/44 45/47/47 46/45/45
f 47/46/46 48/48/48 46/45/45
f 47/46/46 1/3/3 4/2/2
f 49/49/49 50/53/53 51/50/50
f 53/52/52 54/55/55 51/50/50
f 55/54/54 56/57/57 54/55/55
f 55/54/54 57/59/59 58/56/56
f 59/58/58 60/61/61 58/56/56
f 59/58/58 61/63/63 62/60/60
f 63/62/62 64/65/65 62/60/60
f 63/62/62 65/66/66 66/64/64
f 65/66/66 67/69/69 68/67/67
f 69/68/68 70/71/71 68/67/67
f 71/70/70 72/73/73 70/71/71
f 71/70/70 73/74/74 74/72/72
f 73/74/74 75/77/77 76/75/75
f 77/76/76 78/79/79 76/75/75
f 79/78/78 80/81/81 78/79/79
f 79/78/78 81/83/83 82/80/80
f 83/82/82 84/85/85 82/80/80
f 83/82/82 85/87/87 86/84/84
f 87/86/86 88/89/89 86/84/84
f 87/86/86 89/90/90 90/88/88
f 89/90/90 91/93/93 92/91/91
f 93/92/92 94/95/95 92/91/91
f 95/94/94 96/96/96 94/95/95
f 95/94/94 49/49/49 52/51/51
f 98/98/98 99/100/100 48/48/48
f 98/98/98 100/101/101 101/99/99
f 100/101/101 49/49/49 95/94/94
f 49/49/49 100/101/101 102/102/102
f 100/101/101 98/98/98 103/103/103
f 4/2/2 3/5/5 103/103/103
f 102/102/102 104/105/105 53/52/52
f 102/102/102 103/103/103 105/104/104
f 3/5/5 6/7/7 105/104/104
f 53/52/52 104/105/105 106/106/106
f 105/104/104 107/107/107 106/106/106
f 105/104/104 6/7/7 8/9/9
f 106/106/106 108/108/108 57/59/59
f 107/107/107 109/109/109 108/108/108
f 107/107/107 8/9/9 10/11/11
f 57/59/59 108/108/108 110/110/110
f 108/108/108 109/109/109 111/111/111
f 109/109/109 10/11/11 12/10/10
f 110/110/110 112/112/112 61/63/63
f 111/111/111 113/113/113 112/112/112
f 12/10/10 14/15/15 113/113/113
f 61/63/63 112/112/112 114/114/114
f 112/112/112 113/113/113 115/115/115
f 14/15/15 16/14/14 115/115/115
f 114/114/114 116/117/117 65/66/66
f 114/114/114 115/115/115 117/116/116
f 16/14/14 18/17/17 117/116/116
f 65/66/66 116/117/117 118/118/118
f 117/116/116 119/119/119 118/118/118
f 117/116/116 18/17/17 20/19/19
f 118/118/118 120/120/120 69/68/68
f 119/119/119 121/121/121 120/120/120
f 119/119/119 20/19/19 22/21/21
f 120/120/120 122/122/122 71/70/70
f 121/121/121 123/123/123 122/122/122
f 121/121/121 22/21/21 24/25/25
f 122/122/122 124/125/125 73/74/74
f 122/122/122 123/123/123 125/124/124
f 24/25/25 26/24/24 125/124/124
f 124/125/125 126/127/127 75/77/77
f 124/125/125 125/124/124 127/126/126
f 125/124/124 26/24/24 28/29/29
f 126/127/127 128/129/129 77/76/76
f 126/127/127 127/126/126 129/128/128
f 127/126/126 28/29/29 30/31/31
f 77/76/76 128/129/129 130/130/130
f 128/129/129 129/128/128 131/131/131
f 129/128/128 30/31/31 32/30/30
f 130/130/130 132/133/133 81/83/83
f 130/130/130 131/131/131 133/132/132
f 131/131/131 32/30/30 34/35/35
f 81/83/83 132/133/133 134/134/134
f 132/133/133 133/132/132 135/135/135
f 34/35/35 36/34/34 135/135/135
f 134/134/134 136/136/136 85/87/87
f 135/135/135 137/137/137 136/136/136
f 135/135/135 36/34/34 38/39/39
f 85/87/87 136/136/136 138/138/138
f 137/137/137 139/139/139 138/138/138
f 38/39/39 40/38/38 139/139/139
f 138/138/138 140/140/140 89/90/90
f 139/139/139 141/141/141 140/140/140
f 40/38/38 42/43/43 141/141/141
f 89/90/90 140/140/140 142/142/142
f 141/141/141 143/143/143 142/142/142
f 42/43/43 44/42/42 143/143/143
f 91/93/93 142/142/142 144/144/144
f 143/143/143 145/145/145 144/144/144
f 44/42/42 46/45/45 145/145/145
f 93/92/92 144/144/144 101/99/99
f 145/145/145 99/100/100 101/99/99
f 145/145/145 46/45/45 48/48/48
