# Blender v2.78 (sub 0) OBJ File: 'bodytri.blend'
# www.blender.org
mtllib bodytrisimple.mtl
o body_group1
v 0.021607 0.003162 0.041176
v 0.026276 0.001225 0.014575
v 0.014028 -0.006539 0.164692
v 0.020680 -0.013585 0.071113
v 0.014848 -0.022028 0.098323
v 0.024735 -0.008061 0.018260
v 0.020302 -0.012012 0.101712
v 0.015134 -0.017470 0.164758
v 0.005586 0.003323 0.090273
v -0.003617 0.003824 0.083081
v -0.000809 0.002365 0.095223
v 0.014065 -0.016295 0.021895
v 0.004608 0.006707 0.025760
v 0.000336 -0.024645 0.156541
v 0.007937 -0.018484 0.171508
v 0.010637 -0.021481 0.159407
v 0.014554 -0.020961 0.042380
v 0.006385 -0.025847 0.058087
v -0.009765 -0.020887 0.038919
v 0.021426 0.001558 0.062251
v -0.010413 -0.001137 0.069802
v 0.000000 -0.010696 0.047877
v -0.000106 -0.002594 0.024602
v 0.013632 -0.008792 0.066887
v 0.021016 -0.005119 0.040680
v 0.010134 -0.011367 0.041928
v 0.008714 -0.014779 0.057827
v -0.007644 -0.011241 0.039547
v -0.009390 -0.013876 0.056378
v 0.013145 -0.011632 0.073958
v 0.011924 -0.012239 0.100196
v 0.004268 -0.016062 0.168174
v 0.000481 -0.025583 0.149225
v 0.004888 -0.001299 0.087578
v -0.000165 0.005589 0.013385
v -0.003090 0.006475 0.026431
v -0.004674 0.002340 0.018884
v 0.000000 -0.005949 0.016751
v -0.016147 -0.003843 0.016363
v -0.026408 0.000724 0.014932
v -0.016167 -0.008976 0.163668
v -0.020451 0.002135 0.071215
v -0.018430 -0.014734 0.021630
v -0.027355 -0.004095 0.016063
v -0.020658 -0.013601 0.071115
v -0.020754 -0.009222 0.097494
v -0.016751 -0.020127 0.102835
v -0.001020 -0.025356 0.145193
v -0.010242 -0.024392 0.056351
v -0.004911 -0.013501 0.173962
v -0.010580 -0.006163 0.167849
v -0.021664 0.003041 0.041680
v -0.016003 -0.008255 0.064138
v -0.021033 -0.005129 0.040750
v -0.013145 -0.011632 0.073958
v -0.011924 -0.012239 0.100196
v -0.006523 -0.021180 0.169410
v -0.004284 -0.016707 0.168581
v -0.011172 -0.022288 0.159451
v 0.024595 -0.029681 0.005156
v -0.000398 -0.050843 -0.024263
v 0.014910 -0.044206 -0.020489
v 0.018247 -0.027889 -0.010052
v 0.022562 -0.048521 -0.042395
v 0.010701 -0.061936 -0.012439
v 0.013433 0.001903 -0.010498
v 0.007420 -0.076617 -0.038211
v 0.025099 -0.048654 -0.004494
v 0.012852 -0.025947 0.008372
v 0.023376 -0.040128 -0.000725
v 0.035309 -0.008723 0.001373
v -0.003736 0.006650 0.012530
v 0.035778 -0.022732 -0.025432
v 0.040226 -0.023505 -0.017111
v 0.037232 -0.061571 -0.029881
v 0.046768 -0.047445 -0.019880
v 0.058668 -0.050547 -0.006822
v 0.051750 -0.035792 -0.008207
v 0.057661 -0.030632 0.006752
v 0.029208 -0.067115 -0.033073
v 0.001768 -0.054857 -0.045370
v 0.044742 -0.018303 -0.001777
v 0.031555 -0.027944 -0.027257
v 0.030256 -0.061464 -0.025037
v 0.024345 -0.019035 0.012599
v -0.000012 -0.065649 -0.017331
v 0.049220 -0.049078 0.003256
v 0.047742 -0.035422 0.012764
v 0.036348 -0.025755 0.003617
v 0.047810 -0.026223 0.003967
v 0.046092 -0.054188 -0.002464
v 0.038297 -0.049456 -0.012281
v 0.031776 -0.014885 0.005684
v 0.026503 0.000032 0.014492
v 0.020940 -0.013986 0.019802
v -0.020409 -0.031445 0.005300
v -0.020500 -0.036172 -0.015662
v -0.002548 -0.017919 -0.003700
v -0.020759 -0.049158 -0.043068
v -0.022023 -0.002513 -0.013413
v -0.015008 -0.059113 -0.010855
v -0.002688 -0.017290 0.018334
v -0.033891 -0.024540 -0.027453
v -0.022078 -0.071984 -0.036107
v -0.037220 -0.061583 -0.029890
v -0.024189 -0.045321 -0.002248
v -0.025315 -0.029028 0.004544
v 0.001189 -0.021817 0.010980
v -0.035333 -0.008730 0.001412
v -0.026212 0.000718 0.014242
v -0.040211 -0.023499 -0.017121
v -0.044788 -0.018339 -0.001761
v -0.046768 -0.047445 -0.019880
v -0.051755 -0.035837 -0.008230
v -0.058668 -0.050546 -0.006822
v -0.057661 -0.030632 0.006752
v -0.028280 -0.065341 -0.034217
v -0.030312 -0.061449 -0.025074
v -0.029355 -0.016654 0.007687
v -0.049219 -0.049074 0.003259
v -0.047742 -0.035422 0.012764
v -0.036344 -0.025754 0.003619
v -0.047808 -0.026227 0.003970
v -0.046088 -0.054187 -0.002465
v -0.038286 -0.049444 -0.012281
v -0.021488 -0.014832 0.018954
vt 0.2974 0.3413
vt 0.2207 0.3563
vt 0.2974 0.3413
vt 0.3633 0.2339
vt 0.2204 0.2794
vt 0.2339 0.2378
vt 0.2859 0.2949
vt 0.3783 0.2727
vt 0.8226 0.9792
vt 0.7279 0.9459
vt 0.7945 0.8789
vt 0.7841 0.7912
vt 0.8872 0.6497
vt 0.9107 0.8633
vt 0.8619 0.7452
vt 0.8460 0.9644
vt 0.7807 0.3091
vt 0.7622 0.2498
vt 0.7950 0.2621
vt 0.6582 0.3107
vt 0.6834 0.2720
vt 0.8721 0.3697
vt 0.8368 0.3617
vt 0.8789 0.3394
vt 0.9201 0.3732
vt 0.9335 0.4135
vt 0.8491 0.6425
vt 0.7786 0.3648
vt 0.7144 0.6660
vt 0.6550 0.3531
vt 0.7307 0.6903
vt 0.9598 0.9113
vt 0.8997 0.9446
vt 0.7572 0.2141
vt 0.7776 0.2096
vt 0.6823 0.7890
vt 0.7108 0.7070
vt 0.7147 0.8964
vt 0.7162 0.8539
vt 0.7568 0.8721
vt 0.7425 0.8219
vt 0.6965 0.9139
vt 0.7353 0.9146
vt 0.7733 0.8852
vt 0.7671 0.8131
vt 0.6896 0.8004
vt 0.9645 0.8558
vt 0.9786 0.8309
vt 0.9743 0.8665
vt 0.9505 0.8367
vt 0.9391 0.8282
vt 0.9666 0.8387
vt 0.9482 0.8546
vt 0.8801 0.6808
vt 0.8612 0.6885
vt 0.8518 0.6751
vt 0.8608 0.7400
vt 0.8625 0.7305
vt 0.7394 0.1758
vt 0.7538 0.1839
vt 0.6800 0.1872
vt 0.7211 0.9566
vt 0.7104 0.9612
vt 0.7125 0.9556
vt 0.7119 0.9688
vt 0.7225 0.6973
vt 0.3035 0.3759
vt 0.2215 0.3442
vt 0.2511 0.3126
vt 0.3502 0.3154
vt 0.6206 0.9766
vt 0.6512 0.7744
vt 0.6376 0.8775
vt 0.5404 0.9509
vt 0.5034 0.8773
vt 0.4998 0.8140
vt 0.5584 0.6445
vt 0.4956 0.4357
vt 0.6303 0.2736
vt 0.6590 0.2339
vt 0.6255 0.3784
vt 0.5592 0.3741
vt 0.5382 0.3339
vt 0.5011 0.4082
vt 0.4686 0.7996
vt 0.5959 0.6570
vt 0.5111 0.3552
vt 0.5864 0.9717
vt 0.6973 0.9475
vt 0.7108 0.9804
vt 0.6745 0.8694
vt 0.6854 0.8234
vt 0.6569 0.8810
vt 0.9385 0.8663
vt 0.5698 0.7423
vt 0.5700 0.6901
vt 0.5898 0.6861
vt 0.5613 0.6780
vt 0.5687 0.7321
vt 0.6833 0.2228
vt 0.7480 0.2274
vt 0.6869 0.2472
vt 0.7103 0.6843
vt 0.3642 0.3600
vt 0.3716 0.3463
vt 0.1223 0.6180
vt 0.1896 0.5005
vt 0.2233 0.5102
vt 0.5000 0.2809
vt 0.4490 0.3144
vt 0.4523 0.2834
vt 0.4341 0.2125
vt 0.4004 0.2513
vt 0.4086 0.2992
vt 0.4727 0.2430
vt 0.3332 0.5652
vt 0.2913 0.5615
vt 0.3102 0.4772
vt 0.2299 0.5939
vt 0.2012 0.6742
vt 0.2953 0.1948
vt 0.3417 0.1257
vt 0.3568 0.2064
vt 0.4616 0.3328
vt 0.0318 0.6799
vt 0.0252 0.5632
vt 0.0967 0.4730
vt 0.1639 0.4863
vt 0.0844 0.5237
vt 0.2829 0.3961
vt 0.2153 0.3999
vt 0.1499 0.4084
vt 0.1670 0.3582
vt 0.3207 0.4057
vt 0.3966 0.4167
vt 0.4412 0.0581
vt 0.4899 0.0970
vt 0.4252 0.0756
vt 0.4149 0.0356
vt 0.5201 0.2251
vt 0.4303 0.1705
vt 0.4754 0.1298
vt 0.5378 0.1123
vt 0.5766 0.1840
vt 0.5376 0.1426
vt 0.5472 0.1837
vt 0.5537 0.2155
vt 0.5179 0.1293
vt 0.5365 0.3014
vt 0.5260 0.2642
vt 0.5525 0.2356
vt 0.1382 0.2558
vt 0.1202 0.2477
vt 0.1623 0.1958
vt 0.0924 0.3089
vt 0.1523 0.3211
vt 0.2287 0.1440
vt 0.2123 0.2324
vt 0.2571 0.7545
vt 0.3419 0.7642
vt 0.3159 0.8535
vt 0.1316 0.7484
vt 0.0842 0.8071
vt 0.0306 0.7653
vt 0.1637 0.8445
vt 0.2001 0.8221
vt 0.1497 0.9225
vt 0.0966 0.8579
vt 0.2150 0.9310
vt 0.2826 0.9350
vt 0.1666 0.9727
vt 0.3524 0.9258
vt 0.3203 0.9189
vt 0.3899 0.8459
vt 0.4093 0.9114
vt 0.0771 0.2747
vt 0.0742 0.2317
vt 0.1648 0.0791
vt 0.1979 0.0298
vt 0.1159 0.1348
vt 0.3171 0.0138
vt 0.2953 0.1059
vt 0.0542 0.1498
vt 0.0458 0.1911
vt 0.0164 0.1922
vt 0.0402 0.2231
vt 0.0532 0.1194
vt 0.0736 0.1359
vt 0.0420 0.2430
vt 0.1006 0.1025
vt 0.0580 0.2974
vt 0.9415 0.8073
vt 0.9386 0.4352
vt 0.9586 0.8906
vt 0.6862 0.1750
vt 0.7292 0.6927
vt 0.5694 0.7469
vt 0.6600 0.1759
vt 0.6078 0.1668
vt 0.6078 0.1513
vt 0.6242 0.1628
vt 0.3850 0.4908
vt 0.0893 0.4014
vt 0.5040 0.3029
vt 0.3294 0.2201
vt 0.1396 0.3311
vt 0.1881 0.3037
vt 0.0890 0.9294
vt 0.1483 0.0619
vn 0.0102 0.2560 0.9666
vn -0.0251 0.2827 0.9589
vn -0.0252 0.2827 0.9589
vn -0.0252 0.2828 0.9589
vn -0.0009 0.2804 0.9599
vn 0.0002 0.3541 0.9352
vn 0.6457 0.3105 -0.6976
vn -0.1981 0.9063 0.3733
vn -0.0959 0.9396 0.3285
vn 0.3339 0.9316 -0.1441
vn 0.7972 -0.5957 -0.0983
vn 0.1435 -0.9888 0.0398
vn 0.8877 -0.4557 0.0659
vn 0.6648 -0.4995 -0.5554
vn 0.6247 0.6389 0.4489
vn 0.3105 -0.4119 0.8567
vn 0.8322 -0.3936 0.3906
vn -0.3597 0.7375 0.5716
vn -0.1320 -0.0605 0.9894
vn 0.4119 -0.8973 0.1588
vn 0.0562 -0.9804 0.1889
vn 0.0490 -0.9974 0.0536
vn 0.9527 -0.2858 -0.1036
vn 0.0686 0.9963 0.0523
vn -0.1758 0.9842 0.0216
vn -0.4619 -0.7446 -0.4819
vn 0.1899 -0.8068 -0.5595
vn -0.2789 -0.6524 0.7047
vn 0.2525 0.7861 -0.5642
vn -0.0348 0.9987 -0.0383
vn 0.0217 0.5756 0.8175
vn -0.0105 0.9908 0.1353
vn -0.7068 0.6080 0.3616
vn -0.4693 0.6318 -0.6169
vn 0.3037 0.8487 0.4329
vn -0.5728 -0.3244 -0.7527
vn 0.0564 -0.8645 -0.4994
vn 0.3894 -0.5587 0.7323
vn 0.1465 -0.9857 0.0834
vn -0.3055 -0.7891 0.5330
vn 0.5904 -0.6342 -0.4991
vn 0.6605 -0.4061 -0.6315
vn 0.6733 -0.2305 0.7025
vn -0.4963 -0.3050 0.8128
vn 0.7290 0.6283 0.2717
vn -0.0444 0.6401 -0.7670
vn -0.5794 0.7411 0.3392
vn -0.0052 -0.2845 -0.9587
vn 0.0173 -0.2495 -0.9682
vn 0.0536 0.1013 -0.9934
vn -0.7070 0.3237 -0.6288
vn -0.4871 0.8724 0.0396
vn 0.0730 0.9605 0.2684
vn -0.1529 -0.9118 -0.3811
vn -0.7917 -0.6039 -0.0930
vn -0.2145 -0.9767 0.0026
vn -0.9001 0.2410 0.3630
vn -0.6355 -0.7481 0.1912
vn -0.8977 -0.4389 -0.0385
vn -0.9769 -0.1851 -0.1072
vn 0.6946 0.5849 0.4188
vn 0.7292 0.5444 -0.4147
vn -0.8815 -0.4699 0.0468
vn -0.7368 -0.4970 -0.4583
vn -0.6990 -0.3581 0.6190
vn 0.3533 -0.3431 0.8703
vn 0.0050 -0.1675 -0.9859
vn 0.0639 0.7477 -0.6609
vn 0.4403 0.5239 -0.7292
vn -0.5838 0.5176 -0.6255
vn 0.4443 -0.4311 0.7854
vn 0.0159 -0.9389 0.3439
vn -0.2753 -0.7896 0.5484
vn -0.6390 -0.4509 0.6232
vn -0.8806 -0.1694 -0.4426
vn 0.1112 -0.6480 -0.7535
vn 0.1561 -0.5157 0.8424
vn 0.0174 0.9553 0.2950
vn -0.7730 0.6108 0.1711
vn 0.1684 0.3716 -0.9130
vn -0.0454 -0.3756 0.9257
vn -0.0247 -0.6566 0.7539
vn -0.0537 0.9844 -0.1675
vn 0.7170 0.6502 0.2514
vn 0.7162 0.6729 0.1852
vn 0.7953 0.4606 -0.3941
vn 0.6337 0.7506 -0.1871
vn 0.7928 -0.5777 -0.1942
vn 0.7549 -0.3786 -0.5354
vn 0.7957 0.3370 -0.5033
vn 0.8582 -0.4840 -0.1713
vn 0.5380 -0.7943 -0.2823
vn 0.1175 -0.9254 -0.3604
vn 0.3725 -0.7628 0.5286
vn 0.1598 -0.1042 0.9816
vn -0.1403 -0.5309 0.8358
vn 0.1045 -0.9016 0.4197
vn 0.8317 0.3699 0.4141
vn -0.0245 -0.6346 0.7725
vn -0.1005 -0.0901 0.9909
vn 0.0327 0.6367 0.7704
vn -0.3201 -0.8848 0.3387
vn 0.5624 -0.1308 0.8164
vn 0.1887 -0.7615 0.6201
vn -0.3256 -0.4530 0.8299
vn 0.2986 -0.5021 0.8116
vn -0.4906 -0.4640 0.7376
vn 0.0564 -0.3936 0.9175
vn 0.9522 0.2070 -0.2247
vn -0.1424 0.3567 -0.9233
vn -0.1903 0.6762 -0.7118
vn -0.6541 0.7426 -0.1440
vn -0.6854 0.7013 0.1963
vn -0.7250 0.5076 -0.4656
vn -0.1339 0.5209 -0.8430
vn -0.7914 0.3379 -0.5094
vn -0.7393 0.6518 0.1693
vn -0.7442 -0.3478 -0.5703
vn -0.7705 -0.5983 -0.2199
vn -0.8595 -0.4826 -0.1684
vn -0.3870 -0.8470 -0.3645
vn -0.4943 -0.2282 -0.8388
vn -0.0324 0.3989 -0.9164
vn -0.5857 -0.2382 0.7747
vn -0.1025 -0.0532 0.9933
vn -0.3645 -0.7643 0.5319
vn -0.0822 -0.8796 0.4685
vn -0.0870 -0.8515 0.5172
vn 0.0245 -0.6380 0.7697
vn 0.0969 -0.0919 0.9910
vn -0.8203 0.3688 0.4372
vn -0.0372 0.6361 0.7707
vn 0.3164 -0.8779 0.3593
vn 0.4978 -0.5602 0.6620
usemtl lambert4SG
s off
f 38/1/1 2/2/1 39/3/1
f 95/4/2 110/5/3 126/6/4
f 72/7/5 110/5/5 94/8/5
f 94/8/6 110/5/6 95/4/6
s 1
f 2/9/7 13/10/8 1/11/9
f 20/12/10 2/9/7 1/11/9
f 5/13/11 17/14/12 4/15/13
f 4/15/13 17/14/12 6/16/14
f 3/17/15 15/18/16 8/19/17
f 51/20/18 50/21/19 3/17/15
f 16/22/20 8/23/17 15/24/16
f 14/25/21 33/26/22 16/22/20
f 5/13/11 7/27/23 8/23/17
f 8/23/17 2/9/7 3/28/15
f 3/28/15 11/29/24 51/30/18
f 3/28/15 9/31/25 11/29/24
f 33/26/22 5/13/11 16/22/20
f 17/14/12 43/32/26 12/33/27
f 57/34/28 14/35/21 15/18/16
f 3/28/15 2/9/7 20/12/10
f 20/12/10 21/36/29 10/37/30
f 23/38/31 22/39/32 25/40/33
f 25/40/33 22/39/32 24/41/34
f 36/42/35 23/38/31 13/43/8
f 23/38/31 1/44/9 13/43/8
f 1/44/9 24/41/34 20/45/10
f 20/45/10 24/41/34 21/46/29
f 27/47/36 17/48/12 18/49/37
f 17/48/12 28/50/38 19/51/39
f 26/52/40 29/53/41 28/50/38
f 27/47/36 29/53/41 26/52/40
f 5/54/11 31/55/42 7/56/23
f 31/55/42 4/57/13 7/56/23
f 30/58/43 5/54/11 4/57/13
f 32/59/44 15/60/16 50/61/19
f 13/62/8 37/63/45 36/64/35
f 35/65/46 37/63/45 13/62/8
f 34/66/47 9/31/25 10/37/30
f 38/1/48 35/67/46 2/2/7
f 39/3/49 2/2/7 6/68/14
f 38/1/50 6/68/14 12/69/27
f 38/1/50 12/69/27 43/70/26
f 40/71/51 42/72/52 52/73/53
f 43/74/26 19/75/39 49/76/54
f 47/77/55 49/76/54 48/78/56
f 41/79/57 57/80/28 50/21/19
f 41/81/57 59/82/58 57/83/28
f 59/82/58 48/78/56 33/84/22
f 48/78/56 49/76/54 18/85/37
f 40/71/51 46/86/59 41/81/57
f 51/30/18 11/29/24 10/37/30
f 47/77/55 48/78/56 59/82/58
f 59/82/58 33/84/22 14/87/21
f 40/71/51 44/88/60 43/74/26
f 40/71/51 36/89/35 35/90/46
f 10/37/30 21/36/29 42/72/52
f 23/38/31 54/91/61 22/39/32
f 54/91/61 53/92/62 22/39/32
f 53/92/62 24/41/34 22/39/32
f 52/93/53 23/38/31 36/42/35
f 52/93/53 53/92/62 54/91/61
f 21/46/29 24/41/34 53/92/62
f 19/51/39 29/53/41 49/94/54
f 49/94/54 27/47/36 18/49/37
f 45/95/63 56/96/64 46/97/59
f 47/98/55 56/96/64 55/99/65
f 46/97/59 56/96/64 47/98/55
f 47/98/55 55/99/65 45/95/63
f 57/100/28 15/101/16 58/102/66
f 10/37/30 11/103/24 34/66/47
f 36/64/35 37/63/45 35/65/46
f 38/1/48 40/104/51 35/67/46
f 38/1/50 43/70/26 44/105/60
f 44/105/60 39/3/67 38/1/50
f 66/106/68 73/107/69 83/108/70
f 85/109/71 108/110/72 69/111/73
f 70/112/74 69/111/73 63/113/75
f 69/111/73 108/110/72 98/114/76
f 70/112/74 60/115/77 69/111/73
f 61/116/78 62/117/79 64/118/80
f 63/119/75 98/120/76 66/106/68
f 61/121/78 65/122/81 62/123/79
f 62/123/79 70/112/74 63/113/75
f 85/109/71 102/124/82 108/110/72
f 72/125/83 94/126/84 66/106/68
f 73/107/69 82/127/85 74/128/86
f 73/107/69 66/106/68 71/129/87
f 64/118/80 73/107/69 75/130/88
f 76/131/89 78/132/90 77/133/91
f 80/134/92 67/135/93 64/118/80
f 80/134/92 64/118/80 75/130/88
f 83/108/70 64/118/80 62/117/79
f 75/136/88 76/137/89 84/138/94
f 84/138/94 80/139/92 75/136/88
f 85/109/71 60/115/77 89/140/95
f 65/122/81 80/139/92 84/138/94
f 68/141/96 84/138/94 92/142/97
f 77/143/91 79/144/98 87/145/99
f 88/146/100 90/147/101 89/140/95
f 92/142/97 76/137/89 91/148/102
f 87/145/99 92/142/97 91/148/102
f 89/140/95 92/142/97 88/146/100
f 88/146/100 92/142/97 87/145/99
f 94/149/84 85/109/71 93/150/103
f 82/151/85 89/140/95 90/147/101
f 96/152/104 107/153/105 106/154/106
f 96/152/104 126/155/107 107/153/105
f 108/156/72 126/155/107 96/152/104
f 61/121/78 101/157/108 65/122/81
f 96/152/104 106/154/106 97/158/109
f 97/159/109 61/160/78 99/161/110
f 98/120/76 97/159/109 100/162/111
f 100/162/111 109/163/112 110/164/113
f 100/162/111 110/164/113 72/125/83
f 111/165/114 103/166/115 114/167/116
f 112/168/117 100/162/111 111/165/114
f 111/165/114 100/162/111 103/166/115
f 114/167/116 103/166/115 113/169/118
f 103/166/115 99/161/110 105/170/119
f 114/167/116 113/169/118 115/171/120
f 104/172/121 117/173/122 99/161/110
f 81/174/123 67/175/93 104/172/121
f 110/164/113 109/163/112 112/168/117
f 99/161/110 117/173/122 105/170/119
f 107/153/105 119/176/124 122/177/125
f 107/153/105 126/155/107 119/176/124
f 101/157/108 118/178/126 104/179/121
f 118/178/126 106/154/106 125/180/127
f 67/181/93 86/182/128 101/157/108
f 120/183/129 121/184/130 116/185/131
f 123/186/132 116/185/131 121/184/130
f 123/186/132 121/184/130 122/177/125
f 120/183/129 115/187/120 124/188/133
f 125/180/127 120/183/129 124/188/133
f 125/180/127 122/177/125 121/184/130
f 125/180/127 121/184/130 120/183/129
f 125/180/127 106/154/106 122/177/125
f 119/176/124 112/189/117 122/177/125
f 97/159/109 103/166/115 100/162/111
f 125/180/127 113/190/118 118/178/126
f 119/176/124 110/191/113 112/189/117
f 3/28/15 20/12/10 9/31/25
f 7/27/23 4/15/13 2/9/7
f 13/10/8 2/9/7 35/90/46
f 18/192/37 17/14/12 5/13/11
f 5/13/11 33/26/22 18/192/37
f 2/9/7 4/15/13 6/16/14
f 3/17/15 50/21/19 15/18/16
f 33/26/22 48/193/56 18/192/37
f 14/25/21 16/22/20 15/24/16
f 2/9/7 8/23/17 7/27/23
f 8/23/17 16/22/20 5/13/11
f 17/14/12 19/194/39 43/32/26
f 12/33/27 6/16/14 17/14/12
f 9/31/25 20/12/10 10/37/30
f 23/38/31 25/40/33 1/44/9
f 1/44/9 25/40/33 24/41/34
f 27/47/36 26/52/40 17/48/12
f 17/48/12 26/52/40 28/50/38
f 31/55/42 30/58/43 4/57/13
f 5/54/11 30/58/43 31/55/42
f 58/195/66 32/59/44 50/61/19
f 9/196/25 34/66/47 11/103/24
f 40/71/51 52/73/53 36/89/35
f 42/72/52 51/30/18 10/37/30
f 41/81/57 46/86/59 47/77/55
f 47/77/55 45/197/63 49/76/54
f 45/197/63 40/71/51 43/74/26
f 40/71/51 45/197/63 46/86/59
f 45/197/63 43/74/26 49/76/54
f 41/81/57 47/77/55 59/82/58
f 51/20/18 41/79/57 50/21/19
f 41/81/57 51/30/18 42/72/52
f 57/83/28 59/82/58 14/87/21
f 41/81/57 42/72/52 40/71/51
f 52/73/53 42/72/52 21/36/29
f 52/93/53 54/91/61 23/38/31
f 52/93/53 21/46/29 53/92/62
f 19/51/39 28/50/38 29/53/41
f 49/94/54 29/53/41 27/47/36
f 45/95/63 55/99/65 56/96/64
f 50/61/19 57/198/28 58/195/66
f 15/199/16 32/200/44 58/201/66
f 38/1/50 39/3/49 6/68/14
f 44/105/60 40/104/51 39/3/67
f 40/104/51 38/1/48 39/3/67
f 68/141/96 60/115/77 70/112/74
f 60/115/77 85/109/71 69/111/73
f 68/141/96 70/112/74 62/123/79
f 64/118/80 81/202/123 61/116/78
f 65/122/81 68/141/96 62/123/79
f 63/113/75 69/111/73 98/114/76
f 66/106/68 94/126/84 71/129/87
f 74/128/86 78/132/90 73/107/69
f 79/203/98 78/132/90 74/128/86
f 82/127/85 79/203/98 74/128/86
f 73/107/69 71/129/87 82/127/85
f 78/132/90 76/131/89 73/107/69
f 75/130/88 73/107/69 76/131/89
f 79/203/98 77/133/91 78/132/90
f 64/118/80 67/135/93 81/202/123
f 94/126/84 82/127/85 71/129/87
f 73/107/69 64/118/80 83/108/70
f 83/108/70 62/117/79 63/119/75
f 89/140/95 60/115/77 68/141/96
f 65/122/81 67/181/93 80/139/92
f 68/141/96 65/122/81 84/138/94
f 67/181/93 65/122/81 86/182/128
f 87/145/99 79/144/98 88/146/100
f 79/144/98 82/151/85 90/147/101
f 90/147/101 88/146/100 79/144/98
f 87/145/99 91/148/102 77/143/91
f 76/137/89 77/143/91 91/148/102
f 92/142/97 89/140/95 68/141/96
f 93/150/103 85/109/71 89/140/95
f 94/149/84 95/204/134 85/109/71
f 95/204/134 102/124/82 85/109/71
f 93/150/103 89/140/95 82/151/85
f 63/119/75 66/106/68 83/108/70
f 92/142/97 84/138/94 76/137/89
f 93/150/103 82/151/85 94/149/84
f 95/4/134 126/6/107 102/205/82
f 105/170/119 117/173/122 104/172/121
f 108/156/72 102/206/82 126/155/107
f 97/158/109 106/154/106 101/157/108
f 98/207/76 108/156/72 96/152/104
f 81/174/123 99/161/110 61/160/78
f 103/166/115 97/159/109 99/161/110
f 66/106/68 98/120/76 100/162/111
f 61/121/78 97/158/109 101/157/108
f 98/207/76 96/152/104 97/158/109
f 66/106/68 100/162/111 72/125/83
f 111/165/114 114/167/116 116/208/131
f 111/165/114 116/208/131 112/168/117
f 112/168/117 109/163/112 100/162/111
f 113/169/118 103/166/115 105/170/119
f 114/167/116 115/171/120 116/208/131
f 81/174/123 104/172/121 99/161/110
f 105/209/119 118/178/126 113/190/118
f 118/178/126 105/209/119 104/179/121
f 106/154/106 107/153/105 122/177/125
f 118/178/126 101/157/108 106/154/106
f 101/157/108 104/179/121 67/181/93
f 115/187/120 120/183/129 116/185/131
f 123/186/132 112/189/117 116/185/131
f 124/188/133 115/187/120 113/190/118
f 125/180/127 124/188/133 113/190/118
f 119/176/124 126/155/107 110/191/113
f 65/122/81 101/157/108 86/182/128
f 112/189/117 123/186/132 122/177/125
